<?xml version="1.0" encoding="utf-8"?>
<!-- Generator: Adobe Illustrator 16.0.4, SVG Export Plug-In . SVG Version: 6.00 Build 0)  -->
<!DOCTYPE svg PUBLIC "-//W3C//DTD SVG 1.1//EN" "http://www.w3.org/Graphics/SVG/1.1/DTD/svg11.dtd">
<svg version="1.1" id="Layer_1" xmlns="http://www.w3.org/2000/svg" xmlns:xlink="http://www.w3.org/1999/xlink" x="0px" y="0px"
	 width="255.814px" height="256.589px" viewBox="0 0 255.814 256.589" enable-background="new 0 0 255.814 256.589"
	 xml:space="preserve">
<circle fill="none" stroke="#C2534C" stroke-width="9" stroke-miterlimit="10" cx="127.812" cy="127.577" r="120.188"/>
<path fill="#C2534C" d="M76.4,178.989c-1.757-1.758-1.124-5.24,1.414-7.778l93.631-93.631c2.538-2.539,6.021-3.171,7.778-1.414l0,0
	c1.757,1.757,1.124,5.24-1.415,7.778l-93.63,93.631C81.639,180.113,78.157,180.746,76.4,178.989L76.4,178.989z"/>
<path fill="#C2534C" d="M76.4,76.165c1.758-1.757,5.24-1.124,7.778,1.414l93.631,93.632c2.538,2.538,3.171,6.021,1.414,7.778l0,0
	c-1.758,1.757-5.24,1.124-7.778-1.415l-93.63-93.631C75.276,81.405,74.643,77.922,76.4,76.165L76.4,76.165z"/>
</svg>
